<svg width="30" height="30" viewBox="0 0 30 30" fill="none" xmlns="http://www.w3.org/2000/svg">
<g opacity="0.2">
<path fill-rule="evenodd" clip-rule="evenodd" d="M3.87868 3.87868C4.44129 3.31607 5.20435 3 6 3H24C24.7957 3 25.5587 3.31607 26.1213 3.87868C26.6839 4.44129 27 5.20435 27 6V24C27 24.7957 26.6839 25.5587 26.1213 26.1213C25.5587 26.6839 24.7957 27 24 27H6C5.20435 27 4.44129 26.6839 3.87868 26.1213C3.31607 25.5587 3 24.7957 3 24V6C3 5.20435 3.31607 4.44129 3.87868 3.87868ZM17.0486 8.15147C16.5799 7.68284 15.8201 7.68284 15.3515 8.15147C14.8829 8.6201 14.8829 9.3799 15.3515 9.84853L17.503 12H9.60004C8.93729 12 8.40003 12.5373 8.40003 13.2C8.40003 13.8627 8.93729 14.4 9.60004 14.4H20.4C20.8854 14.4 21.323 14.1076 21.5087 13.6592C21.6944 13.2108 21.5918 12.6947 21.2486 12.3515L17.0486 8.15147ZM9.60004 15.6C9.11468 15.6 8.67712 15.8924 8.49138 16.3408C8.30564 16.7892 8.40831 17.3053 8.75151 17.6485L12.9515 21.8485C13.4201 22.3172 14.1799 22.3172 14.6486 21.8485C15.1172 21.3799 15.1172 20.6201 14.6486 20.1515L12.4971 18H20.4C21.0628 18 21.6 17.4627 21.6 16.8C21.6 16.1373 21.0628 15.6 20.4 15.6H9.60004Z" fill="white"/>
</g>
</svg>
