<svg width="30" height="30" viewBox="0 0 30 30" fill="none" xmlns="http://www.w3.org/2000/svg">
<g opacity="0.2">
<path d="M14.6461 13.2771C14.7398 13.1795 14.867 13.1246 14.9996 13.1246C15.1322 13.1246 15.2594 13.1795 15.3532 13.2771C15.4469 13.3748 15.4996 13.5073 15.4996 13.6454V16.034L16.8531 17.4439C16.9442 17.5421 16.9946 17.6737 16.9934 17.8102C16.9923 17.9468 16.9397 18.0774 16.847 18.174C16.7543 18.2705 16.6289 18.3253 16.4978 18.3265C16.3667 18.3277 16.2404 18.2752 16.1461 18.1803L14.6461 16.6178C14.5523 16.5202 14.4996 16.3877 14.4996 16.2496V13.6454C14.4996 13.5073 14.5523 13.3748 14.6461 13.2771Z" fill="white"/>
<path fill-rule="evenodd" clip-rule="evenodd" d="M3.7044 24.265C4.1748 24.755 4.74 25 5.4 25H24.6C25.2592 25.0008 25.824 24.7562 26.2944 24.2662C26.7648 23.7762 27 23.1875 27 22.5V10C27.0008 9.31334 26.766 8.725 26.2956 8.235C25.8252 7.745 25.26 7.5 24.6 7.5H15L12.6 5H5.4C4.7408 4.99917 4.176 5.24375 3.7056 5.73375C3.2352 6.22375 3 6.8125 3 7.5V22.5C2.9992 23.1867 3.234 23.775 3.7044 24.265ZM19.9996 16.2496C19.9996 13.373 17.7611 11.0413 14.9996 11.0413C12.2381 11.0413 9.99961 13.373 9.99961 16.2496C9.99961 19.1262 12.2381 21.4579 14.9996 21.4579C17.7611 21.4579 19.9996 19.1262 19.9996 16.2496Z" fill="white"/>
</g>
</svg>
