<svg width="30" height="30" viewBox="0 0 30 30" fill="none" xmlns="http://www.w3.org/2000/svg">
<g opacity="0.2">
<path fill-rule="evenodd" clip-rule="evenodd" d="M4.80546 5.83684C4.28973 6.37266 4 7.09938 4 7.85714V22.1429C4 22.9006 4.28973 23.6273 4.80546 24.1632C5.32118 24.699 6.02065 25 6.75 25H23.25C22.5207 25 21.8212 24.699 21.3055 24.1632C20.7897 23.6273 20.5 22.9006 20.5 22.1429V7.85714C20.5 7.09938 20.2103 6.37266 19.6945 5.83684C19.1788 5.30102 18.4793 5 17.75 5H6.75C6.02065 5 5.32118 5.30102 4.80546 5.83684ZM6.75 10.7143C6.75 9.92531 7.36561 9.28571 8.125 9.28571H16.375C17.1344 9.28571 17.75 9.92531 17.75 10.7143C17.75 11.5033 17.1344 12.1429 16.375 12.1429H8.125C7.36561 12.1429 6.75 11.5033 6.75 10.7143ZM6.75 15C6.75 14.211 7.36561 13.5714 8.125 13.5714H13.625C14.3844 13.5714 15 14.211 15 15C15 15.789 14.3844 16.4286 13.625 16.4286H8.125C7.36561 16.4286 6.75 15.789 6.75 15Z" fill="white"/>
<path d="M21.875 10.7143H23.25C23.9793 10.7143 24.6788 11.0153 25.1945 11.5511C25.7103 12.0869 26 12.8137 26 13.5714V21.4286C26 21.9969 25.7827 22.5419 25.3959 22.9438C25.0091 23.3457 24.4845 23.5714 23.9375 23.5714C23.3905 23.5714 22.8659 23.3457 22.4791 22.9438C22.0923 22.5419 21.875 21.9969 21.875 21.4286V10.7143Z" fill="white"/>
</g>
</svg>
