<svg width="30" height="30" viewBox="0 0 30 30" fill="none" xmlns="http://www.w3.org/2000/svg">
<g opacity="0.2">
<path d="M24 25.3333V8C24 7.44772 23.5523 7 23 7H20C19.4477 7 19 6.55228 19 6V3C19 2.44772 18.5523 2 18 2H5C4.44772 2 4 2.44772 4 3V25.3333V27H12.3333V22H15.6667V27H24V25.913V25.3333ZM10.6667 18.6667H7.33333V15.3333H10.6667V18.6667ZM10.6667 13.6667H7.33333V10.3333H10.6667V13.6667ZM10.6667 8.66667H7.33333V5.33333H10.6667V8.66667ZM15.6667 18.6667H12.3333V15.3333H15.6667V18.6667ZM15.6667 13.6667H12.3333V10.3333H15.6667V13.6667ZM15.6667 8.66667H12.3333V5.33333H15.6667V8.66667ZM22.3333 18.6667H19V15.3333H22.3333V18.6667ZM22.3333 13.6667H19V10.3333H22.3333V13.6667Z" fill="white"/>
</g>
</svg>
